<svg width="40" height="40" viewBox="0 0 40 40" fill="none" xmlns="http://www.w3.org/2000/svg">
<g clip-path="url(#clip0_5325_43350)">
<path d="M24.1665 12.5C24.3854 12.2812 24.6452 12.1076 24.9312 11.9891C25.2171 11.8707 25.5236 11.8097 25.8332 11.8097C26.1427 11.8097 26.4492 11.8707 26.7352 11.9891C27.0211 12.1076 27.281 12.2812 27.4998 12.5C27.7187 12.7189 27.8923 12.9788 28.0108 13.2647C28.1292 13.5507 28.1902 13.8572 28.1902 14.1667C28.1902 14.4762 28.1292 14.7827 28.0108 15.0687C27.8923 15.3547 27.7187 15.6145 27.4998 15.8334L16.2498 27.0834L11.6665 28.3334L12.9165 23.75L24.1665 12.5Z" stroke="#667085" stroke-width="1.66667" stroke-linecap="round" stroke-linejoin="round"/>
</g>
<defs>
<clipPath id="clip0_5325_43350">
<rect width="20" height="20" fill="white" transform="translate(10 10)"/>
</clipPath>
</defs>
</svg>
